<svg width="56" height="30" viewBox="0 0 56 30" fill="none" xmlns="http://www.w3.org/2000/svg">
<g id="logo_black 1" clip-path="url(#clip0_2223_210)">
<g id="Group">
<path id="Vector" fill-rule="evenodd" clip-rule="evenodd" d="M30.2545 19.99C33.4798 19.8028 34.3856 16.9453 35.43 14.8242C35.9765 13.7146 36.4795 12.5253 36.9685 11.4196C37.4195 10.3999 37.6878 8.89678 38.9268 8.60201C39.8388 9.30166 38.8352 10.4212 38.5074 11.1847C38.133 12.0557 37.7916 12.9634 37.3882 13.885C36.8425 15.1315 33.4905 20.8025 38.2276 19.99C40.2903 19.6361 41.6649 16.6178 42.5634 14.5893C43.0586 13.4724 43.4984 12.3162 43.9624 11.3021C44.4629 10.2076 44.7613 8.86981 45.9205 8.4845C46.7847 9.53849 45.6804 10.7726 45.2213 11.7716C43.7713 14.9259 42.3497 18.4695 41.0251 21.7511C47.9579 19.6904 49.5289 12.4738 52.0751 6.37118C52.4285 5.52406 52.7762 4.13459 53.4738 4.14052C54.7885 4.15198 53.2357 7.12858 52.9144 7.89743C51.8104 10.5387 50.5556 13.0506 49.5574 15.7634C49.0909 17.0309 48.2424 18.6748 49.1377 19.99C52.1079 20.0406 53.1206 18.2734 54.1733 16.5853C54.568 15.9524 54.6899 14.6972 55.9916 14.8242C56.3932 16.1292 54.3244 18.9699 53.0542 19.99C51.2689 21.4237 47.5144 21.8575 47.3193 19.1682C45.6615 20.9857 43.5315 22.4068 40.4655 23.0424C39.4189 25.0892 38.1704 28.3811 35.1503 28.6778C32.4115 28.9469 30.4021 26.4855 32.073 24.4513C33.3407 22.9078 36.8762 22.7128 39.2066 22.2206C39.7791 21.8401 39.7514 20.9561 40.1857 20.4596C38.8099 21.4806 34.6397 21.4076 34.4508 19.1682C33.0278 21.3911 28.0224 22.412 28.576 18.1116C28.9155 15.4755 32.0504 12.3174 30.8139 10.2455C30.6518 9.97375 30.1746 9.70189 29.9748 9.65847C27.2491 9.06711 25.2529 13.0991 24.5197 14.472C23.2535 16.843 22.7163 19.2574 21.3026 21.1641C20.7209 21.1827 20.4411 20.9479 20.4634 20.4598C19.0515 21.5544 15.7637 21.3677 15.8475 19.2857C14.1901 20.5948 12.0479 22.5145 8.99361 23.0424C7.78261 25.0382 6.67423 28.4697 3.39851 28.6779C1.17769 28.819 -0.582668 27.2634 0.181382 25.1559C0.974902 22.9669 5.02272 22.7261 7.73466 22.2207C9.65966 18.2012 11.2551 13.9048 13.05 9.77592C12.408 9.37551 10.4376 10.0901 10.3923 9.18897C10.4612 8.19015 12.3831 8.74667 13.4696 8.60201C14.9191 6.66313 16.0209 1.81897 19.0646 0.853346C20.5361 0.386427 22.9973 0.830726 22.5614 2.49687C21.3299 2.81227 21.5016 1.86163 20.4633 1.79253C17.3935 1.58812 16.3334 6.61078 15.1481 8.48456C15.9398 8.83744 17.9257 8.18797 17.8056 9.30618C17.3828 9.9298 15.7753 9.55876 14.7284 9.65847C12.6827 13.4596 11.2384 17.7652 9.41319 21.7512C15.458 20.1741 16.8473 14.8138 19.2044 9.89331C19.4328 9.41646 19.4625 8.34731 20.6031 8.60201C21.0632 9.51828 20.2836 10.522 19.9037 11.4196C19.5208 12.3248 19.1643 13.2999 18.7848 14.2372C18.0371 16.0837 16.6023 17.9846 17.526 19.9901C18.7823 20.1713 19.7017 19.5563 20.3235 18.9335C22.2251 17.0283 23.2106 13.7795 24.3798 11.0676C24.7591 10.1878 25.069 9.14672 25.9184 8.60213C26.6731 8.45354 26.7744 9.29502 26.4779 9.65859C27.6306 8.52933 30.8285 7.92029 31.9331 9.42375C33.995 12.2307 28.58 17.1096 30.2545 19.99ZM1.99977 27.3864C5.4626 28.0523 6.68466 25.2211 7.17515 23.3947C4.48932 23.7447 -0.359368 24.6694 1.99977 27.3864ZM32.9121 25.8602C32.7888 26.781 33.3997 27.3745 33.8911 27.504C36.6285 28.2242 38.3921 24.9183 38.7868 23.5122C36.4027 23.9055 33.166 23.9634 32.9121 25.8602Z" fill="black"/>
<path id="Vector_2" fill-rule="evenodd" clip-rule="evenodd" d="M22.0019 5.43205C23.8424 6.52306 20.9635 8.08222 20.4633 6.60608C20.2471 5.96824 20.7318 5.25544 22.0019 5.43205Z" fill="black"/>
</g>
</g>
<defs>
<clipPath id="clip0_2223_210">
<rect width="56" height="29.3771" fill="white"/>
</clipPath>
</defs>
</svg>
